<mxfile host="app.diagrams.net" modified="2023-11-18T18:56:49.697Z" agent="Mozilla/5.0 (Windows NT 10.0; Win64; x64) AppleWebKit/537.36 (KHTML, like Gecko) Chrome/119.0.0.0 Safari/537.36 Edg/119.0.0.0" etag="Wz97GN6SM3Z-iTnX9jkI" version="22.1.3" type="google">
  <diagram name="Page-1" id="2YBvvXClWsGukQMizWep">
    <mxGraphModel grid="1" page="1" gridSize="10" guides="1" tooltips="1" connect="1" arrows="1" fold="1" pageScale="1" pageWidth="850" pageHeight="1100" math="0" shadow="0">
      <root>
        <mxCell id="0" />
        <mxCell id="1" parent="0" />
        <mxCell id="9rNmP6BkobSEmylUDz1S-2" value="&lt;b&gt;sd &lt;/b&gt;U4 Sort Search Results" style="shape=umlFrame;whiteSpace=wrap;html=1;pointerEvents=0;width=160;height=30;" vertex="1" parent="1">
          <mxGeometry width="620" height="410" as="geometry" />
        </mxCell>
        <mxCell id="9rNmP6BkobSEmylUDz1S-5" value="Guest" style="shape=umlLifeline;perimeter=lifelinePerimeter;whiteSpace=wrap;html=1;container=1;dropTarget=0;collapsible=0;recursiveResize=0;outlineConnect=0;portConstraint=eastwest;newEdgeStyle={&quot;curved&quot;:0,&quot;rounded&quot;:0};participant=umlActor;" vertex="1" parent="1">
          <mxGeometry x="70" y="40" width="20" height="370" as="geometry" />
        </mxCell>
        <mxCell id="9rNmP6BkobSEmylUDz1S-9" value="" style="html=1;points=[[0,0,0,0,5],[0,1,0,0,-5],[1,0,0,0,5],[1,1,0,0,-5]];perimeter=orthogonalPerimeter;outlineConnect=0;targetShapes=umlLifeline;portConstraint=eastwest;newEdgeStyle={&quot;curved&quot;:0,&quot;rounded&quot;:0};" vertex="1" parent="9rNmP6BkobSEmylUDz1S-5">
          <mxGeometry x="5" y="80" width="10" height="240" as="geometry" />
        </mxCell>
        <mxCell id="9rNmP6BkobSEmylUDz1S-6" value="MapUI" style="shape=umlLifeline;perimeter=lifelinePerimeter;whiteSpace=wrap;html=1;container=1;dropTarget=0;collapsible=0;recursiveResize=0;outlineConnect=0;portConstraint=eastwest;newEdgeStyle={&quot;curved&quot;:0,&quot;rounded&quot;:0};participant=umlBoundary;" vertex="1" parent="1">
          <mxGeometry x="210" y="40" width="50" height="370" as="geometry" />
        </mxCell>
        <mxCell id="9rNmP6BkobSEmylUDz1S-10" value="" style="html=1;points=[[0,0,0,0,5],[0,1,0,0,-5],[1,0,0,0,5],[1,1,0,0,-5]];perimeter=orthogonalPerimeter;outlineConnect=0;targetShapes=umlLifeline;portConstraint=eastwest;newEdgeStyle={&quot;curved&quot;:0,&quot;rounded&quot;:0};" vertex="1" parent="9rNmP6BkobSEmylUDz1S-6">
          <mxGeometry x="20" y="90" width="10" height="40" as="geometry" />
        </mxCell>
        <mxCell id="9rNmP6BkobSEmylUDz1S-19" value="&lt;font style=&quot;font-size: 8px;&quot;&gt;recompose()&lt;/font&gt;" style="html=1;verticalAlign=bottom;endArrow=block;curved=0;rounded=0;" edge="1" parent="9rNmP6BkobSEmylUDz1S-6" source="LT-ueMqlYBtlBCt0IVm--10" target="LT-ueMqlYBtlBCt0IVm--10">
          <mxGeometry x="0.0833" y="30" width="80" relative="1" as="geometry">
            <mxPoint x="26.91176470588232" y="260" as="sourcePoint" />
            <mxPoint x="32" y="290.00000000000006" as="targetPoint" />
            <Array as="points">
              <mxPoint x="77" y="260" />
              <mxPoint x="77" y="270" />
              <mxPoint x="77" y="290" />
            </Array>
            <mxPoint as="offset" />
          </mxGeometry>
        </mxCell>
        <mxCell id="LT-ueMqlYBtlBCt0IVm--1" value="" style="html=1;points=[[0,0,0,0,5],[0,1,0,0,-5],[1,0,0,0,5],[1,1,0,0,-5]];perimeter=orthogonalPerimeter;outlineConnect=0;targetShapes=umlLifeline;portConstraint=eastwest;newEdgeStyle={&quot;curved&quot;:0,&quot;rounded&quot;:0};" vertex="1" parent="9rNmP6BkobSEmylUDz1S-6">
          <mxGeometry x="20" y="50" width="10" height="9" as="geometry" />
        </mxCell>
        <mxCell id="LT-ueMqlYBtlBCt0IVm--10" value="" style="html=1;points=[[0,0,0,0,5],[0,1,0,0,-5],[1,0,0,0,5],[1,1,0,0,-5]];perimeter=orthogonalPerimeter;outlineConnect=0;targetShapes=umlLifeline;portConstraint=eastwest;newEdgeStyle={&quot;curved&quot;:0,&quot;rounded&quot;:0};" vertex="1" parent="9rNmP6BkobSEmylUDz1S-6">
          <mxGeometry x="20" y="230" width="10" height="80" as="geometry" />
        </mxCell>
        <mxCell id="9rNmP6BkobSEmylUDz1S-7" value="MapViewModel" style="shape=umlLifeline;perimeter=lifelinePerimeter;whiteSpace=wrap;html=1;container=1;dropTarget=0;collapsible=0;recursiveResize=0;outlineConnect=0;portConstraint=eastwest;newEdgeStyle={&quot;curved&quot;:0,&quot;rounded&quot;:0};participant=umlControl;" vertex="1" parent="1">
          <mxGeometry x="375" y="40" width="40" height="370" as="geometry" />
        </mxCell>
        <mxCell id="9rNmP6BkobSEmylUDz1S-12" value="" style="html=1;points=[[0,0,0,0,5],[0,1,0,0,-5],[1,0,0,0,5],[1,1,0,0,-5]];perimeter=orthogonalPerimeter;outlineConnect=0;targetShapes=umlLifeline;portConstraint=eastwest;newEdgeStyle={&quot;curved&quot;:0,&quot;rounded&quot;:0};" vertex="1" parent="9rNmP6BkobSEmylUDz1S-7">
          <mxGeometry x="15" y="100" width="10" height="120" as="geometry" />
        </mxCell>
        <mxCell id="LT-ueMqlYBtlBCt0IVm--2" value="" style="html=1;points=[[0,0,0,0,5],[0,1,0,0,-5],[1,0,0,0,5],[1,1,0,0,-5]];perimeter=orthogonalPerimeter;outlineConnect=0;targetShapes=umlLifeline;portConstraint=eastwest;newEdgeStyle={&quot;curved&quot;:0,&quot;rounded&quot;:0};" vertex="1" parent="9rNmP6BkobSEmylUDz1S-7">
          <mxGeometry x="15" y="50" width="10" height="9" as="geometry" />
        </mxCell>
        <mxCell id="LT-ueMqlYBtlBCt0IVm--6" value="" style="html=1;points=[[0,0,0,0,5],[0,1,0,0,-5],[1,0,0,0,5],[1,1,0,0,-5]];perimeter=orthogonalPerimeter;outlineConnect=0;targetShapes=umlLifeline;portConstraint=eastwest;newEdgeStyle={&quot;curved&quot;:0,&quot;rounded&quot;:0};" vertex="1" parent="9rNmP6BkobSEmylUDz1S-7">
          <mxGeometry x="20" y="190" width="10" height="20" as="geometry" />
        </mxCell>
        <mxCell id="LT-ueMqlYBtlBCt0IVm--7" value="set(finalCarparks, value)&amp;nbsp;" style="html=1;align=left;spacingLeft=2;endArrow=block;rounded=0;edgeStyle=orthogonalEdgeStyle;curved=0;rounded=0;" edge="1" parent="9rNmP6BkobSEmylUDz1S-7" target="LT-ueMqlYBtlBCt0IVm--6">
          <mxGeometry relative="1" as="geometry">
            <mxPoint x="25" y="170" as="sourcePoint" />
            <Array as="points">
              <mxPoint x="55" y="200" />
            </Array>
          </mxGeometry>
        </mxCell>
        <mxCell id="LT-ueMqlYBtlBCt0IVm--8" value="" style="html=1;points=[[0,0,0,0,5],[0,1,0,0,-5],[1,0,0,0,5],[1,1,0,0,-5]];perimeter=orthogonalPerimeter;outlineConnect=0;targetShapes=umlLifeline;portConstraint=eastwest;newEdgeStyle={&quot;curved&quot;:0,&quot;rounded&quot;:0};" vertex="1" parent="9rNmP6BkobSEmylUDz1S-7">
          <mxGeometry x="15" y="240" width="10" height="9" as="geometry" />
        </mxCell>
        <mxCell id="9rNmP6BkobSEmylUDz1S-11" value="&lt;font style=&quot;font-size: 8px;&quot;&gt;change sorting&lt;/font&gt;" style="html=1;verticalAlign=bottom;endArrow=block;curved=0;rounded=0;" edge="1" parent="1" target="9rNmP6BkobSEmylUDz1S-10">
          <mxGeometry width="80" relative="1" as="geometry">
            <mxPoint x="85" y="143" as="sourcePoint" />
            <mxPoint x="395" y="143" as="targetPoint" />
          </mxGeometry>
        </mxCell>
        <mxCell id="9rNmP6BkobSEmylUDz1S-13" value="&lt;font style=&quot;font-size: 8px;&quot;&gt;onSortStrategyChanged(sortingStrategy)&lt;/font&gt;" style="html=1;verticalAlign=bottom;endArrow=block;curved=0;rounded=0;" edge="1" parent="1">
          <mxGeometry y="6" width="80" relative="1" as="geometry">
            <mxPoint x="240" y="156" as="sourcePoint" />
            <mxPoint x="390" y="156" as="targetPoint" />
            <mxPoint as="offset" />
          </mxGeometry>
        </mxCell>
        <mxCell id="9rNmP6BkobSEmylUDz1S-14" value="SortingStrategy" style="shape=umlLifeline;perimeter=lifelinePerimeter;whiteSpace=wrap;html=1;container=1;dropTarget=0;collapsible=0;recursiveResize=0;outlineConnect=0;portConstraint=eastwest;newEdgeStyle={&quot;curved&quot;:0,&quot;rounded&quot;:0};participant=umlEntity;" vertex="1" parent="1">
          <mxGeometry x="540" y="40" width="40" height="370" as="geometry" />
        </mxCell>
        <mxCell id="9rNmP6BkobSEmylUDz1S-15" value="" style="html=1;points=[[0,0,0,0,5],[0,1,0,0,-5],[1,0,0,0,5],[1,1,0,0,-5]];perimeter=orthogonalPerimeter;outlineConnect=0;targetShapes=umlLifeline;portConstraint=eastwest;newEdgeStyle={&quot;curved&quot;:0,&quot;rounded&quot;:0};" vertex="1" parent="9rNmP6BkobSEmylUDz1S-14">
          <mxGeometry x="15" y="110" width="10" height="50" as="geometry" />
        </mxCell>
        <mxCell id="9rNmP6BkobSEmylUDz1S-16" value="&lt;font style=&quot;font-size: 8px;&quot;&gt;apply(nearbyCarparks)&lt;/font&gt;" style="html=1;verticalAlign=bottom;endArrow=block;curved=0;rounded=0;" edge="1" parent="1" target="9rNmP6BkobSEmylUDz1S-15">
          <mxGeometry y="-1" width="80" relative="1" as="geometry">
            <mxPoint x="400" y="168.64" as="sourcePoint" />
            <mxPoint x="530" y="168.64" as="targetPoint" />
            <mxPoint as="offset" />
          </mxGeometry>
        </mxCell>
        <mxCell id="9rNmP6BkobSEmylUDz1S-17" value="&lt;font style=&quot;font-size: 8px;&quot;&gt;value = List&amp;lt;CarparkAvailability&amp;gt;&lt;/font&gt;" style="html=1;verticalAlign=bottom;endArrow=open;dashed=1;endSize=8;curved=0;rounded=0;" edge="1" parent="1" source="9rNmP6BkobSEmylUDz1S-15">
          <mxGeometry relative="1" as="geometry">
            <mxPoint x="530" y="190" as="sourcePoint" />
            <mxPoint x="400" y="190" as="targetPoint" />
          </mxGeometry>
        </mxCell>
        <mxCell id="9rNmP6BkobSEmylUDz1S-21" value="&lt;font style=&quot;font-size: 8px;&quot;&gt;display sorted results&lt;/font&gt;" style="html=1;verticalAlign=bottom;endArrow=open;dashed=1;endSize=8;curved=0;rounded=0;" edge="1" parent="1">
          <mxGeometry relative="1" as="geometry">
            <mxPoint x="230.0000000000001" y="342" as="sourcePoint" />
            <mxPoint x="85" y="342" as="targetPoint" />
          </mxGeometry>
        </mxCell>
        <mxCell id="LT-ueMqlYBtlBCt0IVm--3" value="finalCarparks.collectAsState()" style="html=1;verticalAlign=bottom;endArrow=block;curved=0;rounded=0;" edge="1" parent="1" source="LT-ueMqlYBtlBCt0IVm--1" target="LT-ueMqlYBtlBCt0IVm--2">
          <mxGeometry width="80" relative="1" as="geometry">
            <mxPoint x="265" y="90" as="sourcePoint" />
            <mxPoint x="345" y="90" as="targetPoint" />
          </mxGeometry>
        </mxCell>
        <mxCell id="LT-ueMqlYBtlBCt0IVm--11" value="finalCarparks.notify()" style="html=1;verticalAlign=bottom;endArrow=open;dashed=1;endSize=8;curved=0;rounded=0;" edge="1" parent="1" source="LT-ueMqlYBtlBCt0IVm--8" target="LT-ueMqlYBtlBCt0IVm--10">
          <mxGeometry relative="1" as="geometry">
            <mxPoint x="390" y="279.9999999999999" as="sourcePoint" />
            <mxPoint x="305" y="281" as="targetPoint" />
          </mxGeometry>
        </mxCell>
      </root>
    </mxGraphModel>
  </diagram>
</mxfile>
